<svg version="1.1" xmlns="http://www.w3.org/2000/svg" xmlns:xlink="http://www.w3.org/1999/xlink" width="920" height="920"><defs/><g transform="scale(1,1) scale(1,1)"><rect fill="#FFFFFF" stroke="none" x="0" y="0" width="919" height="919"/><g transform="matrix(0.919,0,0,0.919,0,0)"><path fill="#8D8D8D" stroke="black" paint-order="fill stroke markers" d=" M 0 0 L 1000 0 L 1000 1000 L 0 1000 L 0 0 Z Z" stroke-miterlimit="10"/></g><g transform="matrix(0.919,0,0,0.919,153.16666666666666,0)"><path fill="#808080" stroke="black" paint-order="fill stroke markers" d=" M 0 0 L 166.66666666666666 0 L 166.66666666666666 166.66666666666666 L 0 166.66666666666666 L 0 0 Z Z" stroke-miterlimit="10"/></g><g transform="matrix(0.919,0,0,0.919,459.5,0)"><path fill="#808080" stroke="black" paint-order="fill stroke markers" d=" M 0 0 L 166.66666666666666 0 L 166.66666666666666 166.66666666666666 L 0 166.66666666666666 L 0 0 Z Z" stroke-miterlimit="10"/></g><g transform="matrix(0.919,0,0,0.919,765.8333333333333,0)"><path fill="#808080" stroke="black" paint-order="fill stroke markers" d=" M 0 0 L 166.66666666666666 0 L 166.66666666666666 166.66666666666666 L 0 166.66666666666666 L 0 0 Z Z" stroke-miterlimit="10"/></g><g transform="matrix(0.919,0,0,0.919,0,153.16666666666666)"><path fill="#808080" stroke="black" paint-order="fill stroke markers" d=" M 0 0 L 166.66666666666666 0 L 166.66666666666666 166.66666666666666 L 0 166.66666666666666 L 0 0 Z Z" stroke-miterlimit="10"/></g><g transform="matrix(0.919,0,0,0.919,306.3333333333333,153.16666666666666)"><path fill="#808080" stroke="black" paint-order="fill stroke markers" d=" M 0 0 L 166.66666666666666 0 L 166.66666666666666 166.66666666666666 L 0 166.66666666666666 L 0 0 Z Z" stroke-miterlimit="10"/></g><g transform="matrix(0.919,0,0,0.919,612.6666666666666,153.16666666666666)"><path fill="#808080" stroke="black" paint-order="fill stroke markers" d=" M 0 0 L 166.66666666666666 0 L 166.66666666666666 166.66666666666666 L 0 166.66666666666666 L 0 0 Z Z" stroke-miterlimit="10"/></g><g transform="matrix(0.919,0,0,0.919,153.16666666666666,306.3333333333333)"><path fill="#808080" stroke="black" paint-order="fill stroke markers" d=" M 0 0 L 166.66666666666666 0 L 166.66666666666666 166.66666666666666 L 0 166.66666666666666 L 0 0 Z Z" stroke-miterlimit="10"/></g><g transform="matrix(0.919,0,0,0.919,459.5,306.3333333333333)"><path fill="#808080" stroke="black" paint-order="fill stroke markers" d=" M 0 0 L 166.66666666666666 0 L 166.66666666666666 166.66666666666666 L 0 166.66666666666666 L 0 0 Z Z" stroke-miterlimit="10"/></g><g transform="matrix(0.919,0,0,0.919,765.8333333333333,306.3333333333333)"><path fill="#808080" stroke="black" paint-order="fill stroke markers" d=" M 0 0 L 166.66666666666666 0 L 166.66666666666666 166.66666666666666 L 0 166.66666666666666 L 0 0 Z Z" stroke-miterlimit="10"/></g><g transform="matrix(0.919,0,0,0.919,0,459.5)"><path fill="#808080" stroke="black" paint-order="fill stroke markers" d=" M 0 0 L 166.66666666666666 0 L 166.66666666666666 166.66666666666666 L 0 166.66666666666666 L 0 0 Z Z" stroke-miterlimit="10"/></g><g transform="matrix(0.919,0,0,0.919,306.3333333333333,459.5)"><path fill="#808080" stroke="black" paint-order="fill stroke markers" d=" M 0 0 L 166.66666666666666 0 L 166.66666666666666 166.66666666666666 L 0 166.66666666666666 L 0 0 Z Z" stroke-miterlimit="10"/></g><g transform="matrix(0.919,0,0,0.919,612.6666666666666,459.5)"><path fill="#808080" stroke="black" paint-order="fill stroke markers" d=" M 0 0 L 166.66666666666666 0 L 166.66666666666666 166.66666666666666 L 0 166.66666666666666 L 0 0 Z Z" stroke-miterlimit="10"/></g><g transform="matrix(0.919,0,0,0.919,153.16666666666666,612.6666666666666)"><path fill="#808080" stroke="black" paint-order="fill stroke markers" d=" M 0 0 L 166.66666666666666 0 L 166.66666666666666 166.66666666666666 L 0 166.66666666666666 L 0 0 Z Z" stroke-miterlimit="10"/></g><g transform="matrix(0.919,0,0,0.919,459.5,612.6666666666666)"><path fill="#808080" stroke="black" paint-order="fill stroke markers" d=" M 0 0 L 166.66666666666666 0 L 166.66666666666666 166.66666666666666 L 0 166.66666666666666 L 0 0 Z Z" stroke-miterlimit="10"/></g><g transform="matrix(0.919,0,0,0.919,765.8333333333333,612.6666666666666)"><path fill="#808080" stroke="black" paint-order="fill stroke markers" d=" M 0 0 L 166.66666666666666 0 L 166.66666666666666 166.66666666666666 L 0 166.66666666666666 L 0 0 Z Z" stroke-miterlimit="10"/></g><g transform="matrix(0.919,0,0,0.919,0,765.8333333333333)"><path fill="#808080" stroke="black" paint-order="fill stroke markers" d=" M 0 0 L 166.66666666666666 0 L 166.66666666666666 166.66666666666666 L 0 166.66666666666666 L 0 0 Z Z" stroke-miterlimit="10"/></g><g transform="matrix(0.919,0,0,0.919,306.3333333333333,765.8333333333333)"><path fill="#808080" stroke="black" paint-order="fill stroke markers" d=" M 0 0 L 166.66666666666666 0 L 166.66666666666666 166.66666666666666 L 0 166.66666666666666 L 0 0 Z Z" stroke-miterlimit="10"/></g><g transform="matrix(0.919,0,0,0.919,612.6666666666666,765.8333333333333)"><path fill="#808080" stroke="black" paint-order="fill stroke markers" d=" M 0 0 L 166.66666666666666 0 L 166.66666666666666 166.66666666666666 L 0 166.66666666666666 L 0 0 Z Z" stroke-miterlimit="10"/></g><g transform="matrix(0.919,0,0,0.919,0,153.16666666666666)"><path fill="red" stroke="none" paint-order="stroke fill markers" d=" M 0 0 L 166.66666666666666 0 L 166.66666666666666 500 L 0 500 L 0 0 Z Z" opacity="0.5"/></g><g transform="matrix(0.919,0,0,0.919,0,0)"><path fill="none" stroke="#E9E9E9" paint-order="fill stroke markers" d=" M 0 666.6666666666666 L 166.66666666666666 666.6666666666666" stroke-miterlimit="10" stroke-width="3"/></g><g transform="matrix(0.919,0,0,0.919,0,0)"><path fill="none" stroke="#E9E9E9" paint-order="fill stroke markers" d=" M 0 166.66666666666666 L 83.33333333333333 166.66666666666666" stroke-miterlimit="10" stroke-width="3"/></g><g transform="matrix(0.919,0,0,0.919,306.3333333333333,765.8333333333333)"><path fill="red" stroke="none" paint-order="stroke fill markers" d=" M 0 0 L 333.3333333333333 0 L 333.3333333333333 166.66666666666666 L 0 166.66666666666666 L 0 0 Z Z" opacity="0.5"/></g><g transform="matrix(0.919,0,0,0.919,0,0)"><path fill="none" stroke="#E9E9E9" paint-order="fill stroke markers" d=" M 333.3333333333333 833.3333333333333 L 333.3333333333333 1000" stroke-miterlimit="10" stroke-width="3"/></g><g transform="matrix(0.919,0,0,0.919,0,0)"><path fill="none" stroke="#E9E9E9" paint-order="fill stroke markers" d=" M 666.6666666666666 916.6666666666666 L 666.6666666666666 1000" stroke-miterlimit="10" stroke-width="3"/></g><g transform="matrix(0.919,0,0,0.919,306.3333333333333,0)"><path fill="blue" stroke="none" paint-order="stroke fill markers" d=" M 0 0 L 333.3333333333333 0 L 333.3333333333333 166.66666666666666 L 0 166.66666666666666 L 0 0 Z Z" opacity="0.5"/></g><g transform="matrix(0.919,0,0,0.919,0,0)"><path fill="none" stroke="#E9E9E9" paint-order="fill stroke markers" d=" M 333.3333333333333 0 L 333.3333333333333 83.33333333333333" stroke-miterlimit="10" stroke-width="3"/></g><g transform="matrix(0.919,0,0,0.919,0,0)"><path fill="none" stroke="#E9E9E9" paint-order="fill stroke markers" d=" M 666.6666666666666 0 L 666.6666666666666 166.66666666666666" stroke-miterlimit="10" stroke-width="3"/></g><g transform="matrix(0.919,0,0,0.919,765.8333333333333,306.3333333333333)"><path fill="blue" stroke="none" paint-order="stroke fill markers" d=" M 0 0 L 166.66666666666666 0 L 166.66666666666666 500 L 0 500 L 0 0 Z Z" opacity="0.5"/></g><g transform="matrix(0.919,0,0,0.919,0,0)"><path fill="none" stroke="#E9E9E9" paint-order="fill stroke markers" d=" M 833.3333333333333 333.3333333333333 L 1000 333.3333333333333" stroke-miterlimit="10" stroke-width="3"/></g><g transform="matrix(0.919,0,0,0.919,0,0)"><path fill="none" stroke="#E9E9E9" paint-order="fill stroke markers" d=" M 916.6666666666666 833.3333333333333 L 1000 833.3333333333333" stroke-miterlimit="10" stroke-width="3"/></g><g transform="matrix(0.919,0,0,0.919,0,0)"><path fill="none" stroke="#E9E9E9" paint-order="fill stroke markers" d=" M 0 16.666666666666668 L 983.3333333333334 1000" stroke-miterlimit="10" stroke-width="3"/></g><g transform="matrix(0.919,0,0,0.919,0,0)"><path fill="none" stroke="#E9E9E9" paint-order="fill stroke markers" d=" M 16.666666666666668 0 L 1000 983.3333333333334" stroke-miterlimit="10" stroke-width="3"/></g><g transform="matrix(0.919,0,0,0.919,0,0)"><path fill="none" stroke="#CD272F" paint-order="fill stroke markers" d=" M 166.66666666666666 666.6666666666666 L 333.3333333333333 666.6666666666666" stroke-miterlimit="10" stroke-width="8"/></g><g transform="matrix(0.919,0,0,0.919,0,0)"><path fill="none" stroke="#CD272F" paint-order="fill stroke markers" d=" M 333.3333333333333 666.6666666666666 L 333.3333333333333 833.3333333333333" stroke-miterlimit="10" stroke-width="8"/></g><g transform="matrix(0.919,0,0,0.919,0,0)"><path fill="none" stroke="#0050A1" paint-order="fill stroke markers" d=" M 666.6666666666666 166.66666666666666 L 666.6666666666666 333.3333333333333" stroke-miterlimit="10" stroke-width="8"/></g><g transform="matrix(0.919,0,0,0.919,0,0)"><path fill="none" stroke="#0050A1" paint-order="fill stroke markers" d=" M 666.6666666666666 333.3333333333333 L 833.3333333333333 333.3333333333333" stroke-miterlimit="10" stroke-width="8"/></g><g transform="matrix(0.919,0,0,0.919,0,0)"><path fill="none" stroke="#EEEEEE" paint-order="fill stroke markers" d=" M 0 750 L 250 1000" stroke-miterlimit="10" stroke-width="10"/></g><g transform="matrix(0.919,0,0,0.919,114.875,804.125)"><path fill="#0050A1" stroke="#0050A1" paint-order="fill stroke markers" d=" M 27.30833333333333 0 A 27.30833333333333 27.30833333333333 0 1 1 27.308319679167802 -0.02730832878196048 Z" stroke-miterlimit="10" stroke-width="3"/></g><g transform="matrix(0.919,0,0,0.919,114.875,804.125)"><path fill="none" stroke="#0050A1" paint-order="fill stroke markers" d=" M 34.135416666666664 0 A 34.135416666666664 34.135416666666664 0 1 1 34.13539959895975 -0.034135410977450605 Z" stroke-miterlimit="10" stroke-width="3"/></g><g transform="matrix(0.919,0,0,0.919,114.875,804.125)"><path fill="none" stroke="#0050A1" paint-order="fill stroke markers" d=" M 40.96249999999999 0 A 40.96249999999999 40.96249999999999 0 1 1 40.9624795187517 -0.04096249317294071 Z" stroke-miterlimit="10" stroke-width="3"/></g><g transform="matrix(0.919,0,0,0.919,114.875,804.125)"><path fill="none" stroke="#0050A1" paint-order="fill stroke markers" d=" M 47.789583333333326 0 A 47.789583333333326 47.789583333333326 0 1 1 47.78955943854365 -0.047789575368430835 Z" stroke-miterlimit="10" stroke-width="3"/></g><g transform="matrix(0.919,0,0,0.919,114.875,804.125)"><path fill="none" stroke="#0050A1" paint-order="fill stroke markers" d=" M 54.61666666666666 0 A 54.61666666666666 54.61666666666666 0 1 1 54.616639358335604 -0.05461665756392096 Z" stroke-miterlimit="10" stroke-width="3"/></g><g transform="matrix(0.919,0,0,0.919,0,0)"><path fill="none" stroke="#0050A1" paint-order="fill stroke markers" d=" M 125 929.6166666666667 L 125 820.3833333333333" stroke-miterlimit="10" stroke-width="5"/></g><g transform="matrix(0.919,0,0,0.919,0,0)"><path fill="none" stroke="#0050A1" paint-order="fill stroke markers" d=" M 179.61666666666667 875 L 70.38333333333334 875" stroke-miterlimit="10" stroke-width="5"/></g><g transform="matrix(0.919,0,0,0.919,0,0)"><path fill="none" stroke="#EEEEEE" paint-order="fill stroke markers" d=" M 750 0 L 1000 250" stroke-miterlimit="10" stroke-width="10"/></g><g transform="matrix(0.919,0,0,0.919,804.125,114.875)"><path fill="#CD272F" stroke="#CD272F" paint-order="fill stroke markers" d=" M 27.30833333333333 0 A 27.30833333333333 27.30833333333333 0 1 1 27.308319679167802 -0.02730832878196048 Z" stroke-miterlimit="10" stroke-width="3"/></g><g transform="matrix(0.919,0,0,0.919,804.125,114.875)"><path fill="none" stroke="#CD272F" paint-order="fill stroke markers" d=" M 34.135416666666664 0 A 34.135416666666664 34.135416666666664 0 1 1 34.13539959895975 -0.034135410977450605 Z" stroke-miterlimit="10" stroke-width="3"/></g><g transform="matrix(0.919,0,0,0.919,804.125,114.875)"><path fill="none" stroke="#CD272F" paint-order="fill stroke markers" d=" M 40.96249999999999 0 A 40.96249999999999 40.96249999999999 0 1 1 40.9624795187517 -0.04096249317294071 Z" stroke-miterlimit="10" stroke-width="3"/></g><g transform="matrix(0.919,0,0,0.919,804.125,114.875)"><path fill="none" stroke="#CD272F" paint-order="fill stroke markers" d=" M 47.789583333333326 0 A 47.789583333333326 47.789583333333326 0 1 1 47.78955943854365 -0.047789575368430835 Z" stroke-miterlimit="10" stroke-width="3"/></g><g transform="matrix(0.919,0,0,0.919,804.125,114.875)"><path fill="none" stroke="#CD272F" paint-order="fill stroke markers" d=" M 54.61666666666666 0 A 54.61666666666666 54.61666666666666 0 1 1 54.616639358335604 -0.05461665756392096 Z" stroke-miterlimit="10" stroke-width="3"/></g><g transform="matrix(0.919,0,0,0.919,0,0)"><path fill="none" stroke="#CD272F" paint-order="fill stroke markers" d=" M 875 179.61666666666667 L 875 70.38333333333334" stroke-miterlimit="10" stroke-width="5"/></g><g transform="matrix(0.919,0,0,0.919,0,0)"><path fill="none" stroke="#CD272F" paint-order="fill stroke markers" d=" M 929.6166666666667 125 L 820.3833333333333 125" stroke-miterlimit="10" stroke-width="5"/></g><g transform="matrix(0.919,0,0,0.919,0,155.46416666666664)"><path fill="#CD272F" stroke="black" paint-order="fill stroke markers" d=" M 0 0 L 16.666666666666668 0 L 16.666666666666668 83.33333333333333 L 0 83.33333333333333 L 0 0 Z Z" stroke-miterlimit="10" stroke-width="2"/></g><g transform="matrix(0.919,0,0,0.919,0,155.46416666666664)"><path fill="#0050A1" stroke="none" paint-order="stroke fill markers" d=" M 0 0 L 8.333333333333334 0 L 8.333333333333334 83.33333333333333 L 0 83.33333333333333 L 0 0 Z Z"/></g><g transform="matrix(0.919,0,0,0.919,153.16666666666666,0)"><path fill="#CD272F" stroke="black" paint-order="fill stroke markers" d=" M 0 0 L 83.33333333333333 0 L 83.33333333333333 16.666666666666668 L 0 16.666666666666668 L 0 0 Z Z" stroke-miterlimit="10" stroke-width="2"/></g><g transform="matrix(0.919,0,0,0.919,153.16666666666666,0)"><path fill="#0050A1" stroke="none" paint-order="stroke fill markers" d=" M 0 0 L 83.33333333333333 0 L 83.33333333333333 8.333333333333334 L 0 8.333333333333334 L 0 0 Z Z"/></g><g transform="matrix(0.919,0,0,0.919,903.6833333333334,686.9525)"><path fill="#CD272F" stroke="black" paint-order="fill stroke markers" d=" M 0 0 L 16.666666666666668 0 L 16.666666666666668 83.33333333333333 L 0 83.33333333333333 L 0 0 Z Z" stroke-miterlimit="10" stroke-width="2"/></g><g transform="matrix(0.919,0,0,0.919,903.6833333333334,686.9525)"><path fill="#0050A1" stroke="none" paint-order="stroke fill markers" d=" M 0 0 L 8.333333333333334 0 L 8.333333333333334 83.33333333333333 L 0 83.33333333333333 L 0 0 Z Z"/></g><g transform="matrix(0.919,0,0,0.919,689.25,903.6833333333334)"><path fill="#CD272F" stroke="black" paint-order="fill stroke markers" d=" M 0 0 L 83.33333333333333 0 L 83.33333333333333 16.666666666666668 L 0 16.666666666666668 L 0 0 Z Z" stroke-miterlimit="10" stroke-width="2"/></g><g transform="matrix(0.919,0,0,0.919,689.25,903.6833333333334)"><path fill="#0050A1" stroke="none" paint-order="stroke fill markers" d=" M 0 0 L 83.33333333333333 0 L 83.33333333333333 8.333333333333334 L 0 8.333333333333334 L 0 0 Z Z"/></g><g transform="matrix(0.919,0,0,0.919,76.58333333333333,76.58333333333333)"><path fill="#FDCF00" stroke="black" paint-order="fill stroke markers" d=" M 18.333333333333332 0 A 18.333333333333332 18.333333333333332 0 1 1 18.33332416666743 -0.018333330277788544 Z" stroke-miterlimit="10"/></g><g transform="matrix(0.919,0,0,0.919,76.58333333333333,76.58333333333333)"><path fill="none" stroke="black" paint-order="fill stroke markers" d=" M 14.999999999999998 0 A 14.999999999999998 14.999999999999998 0 1 1 14.999992500000623 -0.014999997500008808 Z" stroke-miterlimit="10" opacity="0.5"/></g><g transform="matrix(0.919,0,0,0.919,153.16666666666666,153.16666666666666)"><path fill="#FDCF00" stroke="black" paint-order="fill stroke markers" d=" M 18.333333333333332 0 A 18.333333333333332 18.333333333333332 0 1 1 18.33332416666743 -0.018333330277788544 Z" stroke-miterlimit="10"/></g><g transform="matrix(0.919,0,0,0.919,153.16666666666666,153.16666666666666)"><path fill="none" stroke="black" paint-order="fill stroke markers" d=" M 14.999999999999998 0 A 14.999999999999998 14.999999999999998 0 1 1 14.999992500000623 -0.014999997500008808 Z" stroke-miterlimit="10" opacity="0.5"/></g><g transform="matrix(0.919,0,0,0.919,229.75,229.75)"><path fill="#CD272F" stroke="black" paint-order="fill stroke markers" d=" M 18.333333333333332 0 A 18.333333333333332 18.333333333333332 0 1 1 18.33332416666743 -0.018333330277788544 Z" stroke-miterlimit="10"/></g><g transform="matrix(0.919,0,0,0.919,229.75,229.75)"><path fill="none" stroke="black" paint-order="fill stroke markers" d=" M 14.999999999999998 0 A 14.999999999999998 14.999999999999998 0 1 1 14.999992500000623 -0.014999997500008808 Z" stroke-miterlimit="10" opacity="0.5"/></g><g transform="matrix(0.919,0,0,0.919,306.3333333333333,306.3333333333333)"><path fill="#FDCF00" stroke="black" paint-order="fill stroke markers" d=" M 18.333333333333332 0 A 18.333333333333332 18.333333333333332 0 1 1 18.33332416666743 -0.018333330277788544 Z" stroke-miterlimit="10"/></g><g transform="matrix(0.919,0,0,0.919,306.3333333333333,306.3333333333333)"><path fill="none" stroke="black" paint-order="fill stroke markers" d=" M 14.999999999999998 0 A 14.999999999999998 14.999999999999998 0 1 1 14.999992500000623 -0.014999997500008808 Z" stroke-miterlimit="10" opacity="0.5"/></g><g transform="matrix(0.919,0,0,0.919,382.91666666666663,382.91666666666663)"><path fill="#FDCF00" stroke="black" paint-order="fill stroke markers" d=" M 18.333333333333332 0 A 18.333333333333332 18.333333333333332 0 1 1 18.33332416666743 -0.018333330277788544 Z" stroke-miterlimit="10"/></g><g transform="matrix(0.919,0,0,0.919,382.91666666666663,382.91666666666663)"><path fill="none" stroke="black" paint-order="fill stroke markers" d=" M 14.999999999999998 0 A 14.999999999999998 14.999999999999998 0 1 1 14.999992500000623 -0.014999997500008808 Z" stroke-miterlimit="10" opacity="0.5"/></g><g transform="matrix(0.919,0,0,0.919,842.4166666666666,842.4166666666666)"><path fill="#FDCF00" stroke="black" paint-order="fill stroke markers" d=" M 18.333333333333332 0 A 18.333333333333332 18.333333333333332 0 1 1 18.33332416666743 -0.018333330277788544 Z" stroke-miterlimit="10"/></g><g transform="matrix(0.919,0,0,0.919,842.4166666666666,842.4166666666666)"><path fill="none" stroke="black" paint-order="fill stroke markers" d=" M 14.999999999999998 0 A 14.999999999999998 14.999999999999998 0 1 1 14.999992500000623 -0.014999997500008808 Z" stroke-miterlimit="10" opacity="0.5"/></g><g transform="matrix(0.919,0,0,0.919,765.8333333333333,765.8333333333333)"><path fill="#FDCF00" stroke="black" paint-order="fill stroke markers" d=" M 18.333333333333332 0 A 18.333333333333332 18.333333333333332 0 1 1 18.33332416666743 -0.018333330277788544 Z" stroke-miterlimit="10"/></g><g transform="matrix(0.919,0,0,0.919,765.8333333333333,765.8333333333333)"><path fill="none" stroke="black" paint-order="fill stroke markers" d=" M 14.999999999999998 0 A 14.999999999999998 14.999999999999998 0 1 1 14.999992500000623 -0.014999997500008808 Z" stroke-miterlimit="10" opacity="0.5"/></g><g transform="matrix(0.919,0,0,0.919,689.25,689.25)"><path fill="#CD272F" stroke="black" paint-order="fill stroke markers" d=" M 18.333333333333332 0 A 18.333333333333332 18.333333333333332 0 1 1 18.33332416666743 -0.018333330277788544 Z" stroke-miterlimit="10"/></g><g transform="matrix(0.919,0,0,0.919,689.25,689.25)"><path fill="none" stroke="black" paint-order="fill stroke markers" d=" M 14.999999999999998 0 A 14.999999999999998 14.999999999999998 0 1 1 14.999992500000623 -0.014999997500008808 Z" stroke-miterlimit="10" opacity="0.5"/></g><g transform="matrix(0.919,0,0,0.919,612.6666666666666,612.6666666666666)"><path fill="#FDCF00" stroke="black" paint-order="fill stroke markers" d=" M 18.333333333333332 0 A 18.333333333333332 18.333333333333332 0 1 1 18.33332416666743 -0.018333330277788544 Z" stroke-miterlimit="10"/></g><g transform="matrix(0.919,0,0,0.919,612.6666666666666,612.6666666666666)"><path fill="none" stroke="black" paint-order="fill stroke markers" d=" M 14.999999999999998 0 A 14.999999999999998 14.999999999999998 0 1 1 14.999992500000623 -0.014999997500008808 Z" stroke-miterlimit="10" opacity="0.5"/></g><g transform="matrix(0.919,0,0,0.919,536.0833333333333,536.0833333333333)"><path fill="#FDCF00" stroke="black" paint-order="fill stroke markers" d=" M 18.333333333333332 0 A 18.333333333333332 18.333333333333332 0 1 1 18.33332416666743 -0.018333330277788544 Z" stroke-miterlimit="10"/></g><g transform="matrix(0.919,0,0,0.919,536.0833333333333,536.0833333333333)"><path fill="none" stroke="black" paint-order="fill stroke markers" d=" M 14.999999999999998 0 A 14.999999999999998 14.999999999999998 0 1 1 14.999992500000623 -0.014999997500008808 Z" stroke-miterlimit="10" opacity="0.5"/></g><g transform="matrix(0.919,0,0,0.919,229.75,382.91666666666663)"><path fill="#CD272F" stroke="black" paint-order="fill stroke markers" d=" M 18.333333333333332 0 A 18.333333333333332 18.333333333333332 0 1 1 18.33332416666743 -0.018333330277788544 Z" stroke-miterlimit="10"/></g><g transform="matrix(0.919,0,0,0.919,229.75,382.91666666666663)"><path fill="none" stroke="black" paint-order="fill stroke markers" d=" M 14.999999999999998 0 A 14.999999999999998 14.999999999999998 0 1 1 14.999992500000623 -0.014999997500008808 Z" stroke-miterlimit="10" opacity="0.5"/></g><g transform="matrix(0.919,0,0,0.919,382.91666666666663,536.0833333333333)"><path fill="#FDCF00" stroke="black" paint-order="fill stroke markers" d=" M 18.333333333333332 0 A 18.333333333333332 18.333333333333332 0 1 1 18.33332416666743 -0.018333330277788544 Z" stroke-miterlimit="10"/></g><g transform="matrix(0.919,0,0,0.919,382.91666666666663,536.0833333333333)"><path fill="none" stroke="black" paint-order="fill stroke markers" d=" M 14.999999999999998 0 A 14.999999999999998 14.999999999999998 0 1 1 14.999992500000623 -0.014999997500008808 Z" stroke-miterlimit="10" opacity="0.5"/></g><g transform="matrix(0.919,0,0,0.919,459.5,612.6666666666666)"><path fill="#FDCF00" stroke="black" paint-order="fill stroke markers" d=" M 18.333333333333332 0 A 18.333333333333332 18.333333333333332 0 1 1 18.33332416666743 -0.018333330277788544 Z" stroke-miterlimit="10"/></g><g transform="matrix(0.919,0,0,0.919,459.5,612.6666666666666)"><path fill="none" stroke="black" paint-order="fill stroke markers" d=" M 14.999999999999998 0 A 14.999999999999998 14.999999999999998 0 1 1 14.999992500000623 -0.014999997500008808 Z" stroke-miterlimit="10" opacity="0.5"/></g><g transform="matrix(0.919,0,0,0.919,536.0833333333333,689.25)"><path fill="#FDCF00" stroke="black" paint-order="fill stroke markers" d=" M 18.333333333333332 0 A 18.333333333333332 18.333333333333332 0 1 1 18.33332416666743 -0.018333330277788544 Z" stroke-miterlimit="10"/></g><g transform="matrix(0.919,0,0,0.919,536.0833333333333,689.25)"><path fill="none" stroke="black" paint-order="fill stroke markers" d=" M 14.999999999999998 0 A 14.999999999999998 14.999999999999998 0 1 1 14.999992500000623 -0.014999997500008808 Z" stroke-miterlimit="10" opacity="0.5"/></g><g transform="matrix(0.919,0,0,0.919,689.25,536.0833333333333)"><path fill="#CD272F" stroke="black" paint-order="fill stroke markers" d=" M 18.333333333333332 0 A 18.333333333333332 18.333333333333332 0 1 1 18.33332416666743 -0.018333330277788544 Z" stroke-miterlimit="10"/></g><g transform="matrix(0.919,0,0,0.919,689.25,536.0833333333333)"><path fill="none" stroke="black" paint-order="fill stroke markers" d=" M 14.999999999999998 0 A 14.999999999999998 14.999999999999998 0 1 1 14.999992500000623 -0.014999997500008808 Z" stroke-miterlimit="10" opacity="0.5"/></g><g transform="matrix(0.919,0,0,0.919,536.0833333333333,382.91666666666663)"><path fill="#FDCF00" stroke="black" paint-order="fill stroke markers" d=" M 18.333333333333332 0 A 18.333333333333332 18.333333333333332 0 1 1 18.33332416666743 -0.018333330277788544 Z" stroke-miterlimit="10"/></g><g transform="matrix(0.919,0,0,0.919,536.0833333333333,382.91666666666663)"><path fill="none" stroke="black" paint-order="fill stroke markers" d=" M 14.999999999999998 0 A 14.999999999999998 14.999999999999998 0 1 1 14.999992500000623 -0.014999997500008808 Z" stroke-miterlimit="10" opacity="0.5"/></g><g transform="matrix(0.919,0,0,0.919,459.5,306.3333333333333)"><path fill="#FDCF00" stroke="black" paint-order="fill stroke markers" d=" M 18.333333333333332 0 A 18.333333333333332 18.333333333333332 0 1 1 18.33332416666743 -0.018333330277788544 Z" stroke-miterlimit="10"/></g><g transform="matrix(0.919,0,0,0.919,459.5,306.3333333333333)"><path fill="none" stroke="black" paint-order="fill stroke markers" d=" M 14.999999999999998 0 A 14.999999999999998 14.999999999999998 0 1 1 14.999992500000623 -0.014999997500008808 Z" stroke-miterlimit="10" opacity="0.5"/></g><g transform="matrix(0.919,0,0,0.919,382.91666666666663,229.75)"><path fill="#FDCF00" stroke="black" paint-order="fill stroke markers" d=" M 18.333333333333332 0 A 18.333333333333332 18.333333333333332 0 1 1 18.33332416666743 -0.018333330277788544 Z" stroke-miterlimit="10"/></g><g transform="matrix(0.919,0,0,0.919,382.91666666666663,229.75)"><path fill="none" stroke="black" paint-order="fill stroke markers" d=" M 14.999999999999998 0 A 14.999999999999998 14.999999999999998 0 1 1 14.999992500000623 -0.014999997500008808 Z" stroke-miterlimit="10" opacity="0.5"/></g><g transform="matrix(0.919,0,0,0.919,170.01500000000001,595.8183333333334)"><path fill="#FDCF00" stroke="black" paint-order="fill stroke markers" d=" M 18.333333333333332 0 A 18.333333333333332 18.333333333333332 0 1 1 18.33332416666743 -0.018333330277788544 Z" stroke-miterlimit="10"/></g><g transform="matrix(0.919,0,0,0.919,170.01500000000001,595.8183333333334)"><path fill="none" stroke="black" paint-order="fill stroke markers" d=" M 14.999999999999998 0 A 14.999999999999998 14.999999999999998 0 1 1 14.999992500000623 -0.014999997500008808 Z" stroke-miterlimit="10" opacity="0.5"/></g><g transform="matrix(0.919,0,0,0.919,229.75,595.8183333333334)"><path fill="#FDCF00" stroke="black" paint-order="fill stroke markers" d=" M 18.333333333333332 0 A 18.333333333333332 18.333333333333332 0 1 1 18.33332416666743 -0.018333330277788544 Z" stroke-miterlimit="10"/></g><g transform="matrix(0.919,0,0,0.919,229.75,595.8183333333334)"><path fill="none" stroke="black" paint-order="fill stroke markers" d=" M 14.999999999999998 0 A 14.999999999999998 14.999999999999998 0 1 1 14.999992500000623 -0.014999997500008808 Z" stroke-miterlimit="10" opacity="0.5"/></g><g transform="matrix(0.919,0,0,0.919,289.48499999999996,595.8183333333334)"><path fill="#FDCF00" stroke="black" paint-order="fill stroke markers" d=" M 18.333333333333332 0 A 18.333333333333332 18.333333333333332 0 1 1 18.33332416666743 -0.018333330277788544 Z" stroke-miterlimit="10"/></g><g transform="matrix(0.919,0,0,0.919,289.48499999999996,595.8183333333334)"><path fill="none" stroke="black" paint-order="fill stroke markers" d=" M 14.999999999999998 0 A 14.999999999999998 14.999999999999998 0 1 1 14.999992500000623 -0.014999997500008808 Z" stroke-miterlimit="10" opacity="0.5"/></g><g transform="matrix(0.919,0,0,0.919,323.1816666666667,629.515)"><path fill="#FDCF00" stroke="black" paint-order="fill stroke markers" d=" M 18.333333333333332 0 A 18.333333333333332 18.333333333333332 0 1 1 18.33332416666743 -0.018333330277788544 Z" stroke-miterlimit="10"/></g><g transform="matrix(0.919,0,0,0.919,323.1816666666667,629.515)"><path fill="none" stroke="black" paint-order="fill stroke markers" d=" M 14.999999999999998 0 A 14.999999999999998 14.999999999999998 0 1 1 14.999992500000623 -0.014999997500008808 Z" stroke-miterlimit="10" opacity="0.5"/></g><g transform="matrix(0.919,0,0,0.919,323.1816666666667,689.25)"><path fill="#FDCF00" stroke="black" paint-order="fill stroke markers" d=" M 18.333333333333332 0 A 18.333333333333332 18.333333333333332 0 1 1 18.33332416666743 -0.018333330277788544 Z" stroke-miterlimit="10"/></g><g transform="matrix(0.919,0,0,0.919,323.1816666666667,689.25)"><path fill="none" stroke="black" paint-order="fill stroke markers" d=" M 14.999999999999998 0 A 14.999999999999998 14.999999999999998 0 1 1 14.999992500000623 -0.014999997500008808 Z" stroke-miterlimit="10" opacity="0.5"/></g><g transform="matrix(0.919,0,0,0.919,323.1816666666667,748.9849999999999)"><path fill="#FDCF00" stroke="black" paint-order="fill stroke markers" d=" M 18.333333333333332 0 A 18.333333333333332 18.333333333333332 0 1 1 18.33332416666743 -0.018333330277788544 Z" stroke-miterlimit="10"/></g><g transform="matrix(0.919,0,0,0.919,323.1816666666667,748.9849999999999)"><path fill="none" stroke="black" paint-order="fill stroke markers" d=" M 14.999999999999998 0 A 14.999999999999998 14.999999999999998 0 1 1 14.999992500000623 -0.014999997500008808 Z" stroke-miterlimit="10" opacity="0.5"/></g><g transform="matrix(0.919,0,0,0.919,595.8183333333334,170.01500000000001)"><path fill="#FDCF00" stroke="black" paint-order="fill stroke markers" d=" M 18.333333333333332 0 A 18.333333333333332 18.333333333333332 0 1 1 18.33332416666743 -0.018333330277788544 Z" stroke-miterlimit="10"/></g><g transform="matrix(0.919,0,0,0.919,595.8183333333334,170.01500000000001)"><path fill="none" stroke="black" paint-order="fill stroke markers" d=" M 14.999999999999998 0 A 14.999999999999998 14.999999999999998 0 1 1 14.999992500000623 -0.014999997500008808 Z" stroke-miterlimit="10" opacity="0.5"/></g><g transform="matrix(0.919,0,0,0.919,595.8183333333334,229.75)"><path fill="#FDCF00" stroke="black" paint-order="fill stroke markers" d=" M 18.333333333333332 0 A 18.333333333333332 18.333333333333332 0 1 1 18.33332416666743 -0.018333330277788544 Z" stroke-miterlimit="10"/></g><g transform="matrix(0.919,0,0,0.919,595.8183333333334,229.75)"><path fill="none" stroke="black" paint-order="fill stroke markers" d=" M 14.999999999999998 0 A 14.999999999999998 14.999999999999998 0 1 1 14.999992500000623 -0.014999997500008808 Z" stroke-miterlimit="10" opacity="0.5"/></g><g transform="matrix(0.919,0,0,0.919,595.8183333333334,289.48499999999996)"><path fill="#FDCF00" stroke="black" paint-order="fill stroke markers" d=" M 18.333333333333332 0 A 18.333333333333332 18.333333333333332 0 1 1 18.33332416666743 -0.018333330277788544 Z" stroke-miterlimit="10"/></g><g transform="matrix(0.919,0,0,0.919,595.8183333333334,289.48499999999996)"><path fill="none" stroke="black" paint-order="fill stroke markers" d=" M 14.999999999999998 0 A 14.999999999999998 14.999999999999998 0 1 1 14.999992500000623 -0.014999997500008808 Z" stroke-miterlimit="10" opacity="0.5"/></g><g transform="matrix(0.919,0,0,0.919,629.515,323.1816666666667)"><path fill="#FDCF00" stroke="black" paint-order="fill stroke markers" d=" M 18.333333333333332 0 A 18.333333333333332 18.333333333333332 0 1 1 18.33332416666743 -0.018333330277788544 Z" stroke-miterlimit="10"/></g><g transform="matrix(0.919,0,0,0.919,629.515,323.1816666666667)"><path fill="none" stroke="black" paint-order="fill stroke markers" d=" M 14.999999999999998 0 A 14.999999999999998 14.999999999999998 0 1 1 14.999992500000623 -0.014999997500008808 Z" stroke-miterlimit="10" opacity="0.5"/></g><g transform="matrix(0.919,0,0,0.919,689.25,323.1816666666667)"><path fill="#FDCF00" stroke="black" paint-order="fill stroke markers" d=" M 18.333333333333332 0 A 18.333333333333332 18.333333333333332 0 1 1 18.33332416666743 -0.018333330277788544 Z" stroke-miterlimit="10"/></g><g transform="matrix(0.919,0,0,0.919,689.25,323.1816666666667)"><path fill="none" stroke="black" paint-order="fill stroke markers" d=" M 14.999999999999998 0 A 14.999999999999998 14.999999999999998 0 1 1 14.999992500000623 -0.014999997500008808 Z" stroke-miterlimit="10" opacity="0.5"/></g><g transform="matrix(0.919,0,0,0.919,748.9849999999999,323.1816666666667)"><path fill="#FDCF00" stroke="black" paint-order="fill stroke markers" d=" M 18.333333333333332 0 A 18.333333333333332 18.333333333333332 0 1 1 18.33332416666743 -0.018333330277788544 Z" stroke-miterlimit="10"/></g><g transform="matrix(0.919,0,0,0.919,748.9849999999999,323.1816666666667)"><path fill="none" stroke="black" paint-order="fill stroke markers" d=" M 14.999999999999998 0 A 14.999999999999998 14.999999999999998 0 1 1 14.999992500000623 -0.014999997500008808 Z" stroke-miterlimit="10" opacity="0.5"/></g></g></svg>